<?xml version="1.0" encoding="UTF-8"?>
<svg id="Capa_2" data-name="Capa 2" xmlns="http://www.w3.org/2000/svg" viewBox="0 0 876.1 280.56">
  <defs>
    <style>
      .cls-1 {
        fill: coral;
      }
    </style>
  </defs>
  <g id="Capa_1-2" data-name="Capa 1">
    <g>
      <path class="cls-1" d="M316,280.56c-19.69,0-39.54-4.32-59.56-12.96-20.02-8.64-40.09-19.74-60.21-33.31-10.29-7-21.49-14.88-33.63-23.63-12.14-8.75-24.67-16.84-37.57-24.28-11.38,8.32-23.35,15.1-35.93,20.35-12.58,5.25-25.54,7.88-38.88,7.88-7.44,0-15.04-.77-22.81-2.3-7.76-1.53-14.27-4.38-19.52-8.53-5.25-4.15-7.87-10.17-7.87-18.05,0-8.97,4.38-16.68,13.13-23.13,8.75-6.45,21-9.68,36.75-9.68,13.78,0,27.01,1.81,39.7,5.41,12.68,3.61,24.94,8.26,36.75,13.95,6.78-6.78,13.73-14.49,20.84-23.13,7.11-8.64,14.49-18.21,22.15-28.71-4.59.22-9.14.49-13.62.82-4.49.33-8.92.49-13.29.49-22.75,0-41.46-2.57-56.11-7.71-14.66-5.14-25.54-11.86-32.65-20.18-7.11-8.31-10.66-17.17-10.66-26.58,0-12.03,3.99-21.93,11.98-29.7,7.98-7.76,18.48-13.56,31.5-17.39,13.01-3.83,26.85-5.74,41.51-5.74h7.22c2.18,0,4.05.11,5.58.33,1.31,0,4.54.28,9.68.82,5.14.55,10.72,1.26,16.74,2.13,6.01.88,11.21,1.92,15.59,3.12,4.37,1.2,6.56,2.46,6.56,3.77s-.66,1.97-1.97,1.97c-.44,0-.77-.11-.98-.33-8.75-1.75-17.18-3.17-25.27-4.27-8.1-1.09-16.85-1.64-26.25-1.64s-18.32.93-27.4,2.79c-9.08,1.86-17.34,4.76-24.77,8.7-7.44,3.94-13.4,9.02-17.88,15.26-4.49,6.23-6.73,13.84-6.73,22.81s3.55,17.06,10.66,24.28c7.11,7.22,17.06,12.85,29.86,16.9,12.8,4.05,27.84,6.07,45.12,6.07,9.62,0,19.36-.66,29.2-1.97,2.62-3.5,5.25-7.05,7.87-10.66,2.62-3.61,5.36-7.49,8.2-11.65,4.37-6.12,9.79-13.23,16.24-21.33,6.45-8.09,13.62-16.35,21.49-24.77,7.88-8.42,16.24-16.13,25.1-23.13,8.86-7,17.83-12.69,26.91-17.06,9.08-4.37,17.99-6.56,26.74-6.56,7.65,0,14.55,1.59,20.67,4.76,6.12,3.17,9.19,9.14,9.19,17.88,0,11.6-4.1,22.53-12.31,32.81-8.2,10.28-19.31,19.58-33.31,27.89-14,8.32-29.59,15.37-46.76,21.16-17.18,5.8-34.84,10.23-52.99,13.29-6.78,9.41-14.71,19.42-23.79,30.02-9.08,10.61-19.09,20.4-30.02,29.37,15.31,7.88,30.02,16.68,44.13,26.41,14.11,9.73,28,19.36,41.67,28.88,13.67,9.52,27.4,17.99,41.18,25.43,13.78,7.43,27.89,12.8,42.33,16.08,1.53.44,3.06.76,4.59.98,1.53.22,3.06.33,4.59.33,6.34.44,12.41-.33,18.21-2.3,5.79-1.97,10.66-5.69,14.6-11.16,1.31-1.75,2.46-4.27,3.45-7.55.98-3.28,2.24-4.81,3.77-4.59,3.06.22,4.59,2.18,4.59,5.91,0,6.56-2.46,11.65-7.38,15.26-4.92,3.61-10.72,6.12-17.39,7.55-6.68,1.42-12.85,2.13-18.54,2.13ZM52.17,209.02c11.59,0,22.59-2.25,32.98-6.73,10.39-4.48,20.94-11.43,31.67-20.84-11.81-6.78-23.46-12.25-34.95-16.41-11.48-4.15-22.37-6.23-32.65-6.23-6.13,0-12.14.93-18.05,2.79-5.91,1.86-10.83,4.81-14.77,8.86-3.94,4.05-5.91,9.35-5.91,15.91,0,5.69,2.08,10.23,6.23,13.62,4.15,3.39,9.46,5.74,15.92,7.05,6.45,1.31,12.96,1.97,19.52,1.97ZM193.93,112.22c16.84-3.28,33.19-7.98,49.06-14.11,15.86-6.12,30.08-13.13,42.66-21,12.58-7.88,22.59-16.41,30.02-25.59,7.43-9.19,11.16-18.59,11.16-28.22,0-7-2.35-11.7-7.05-14.11-4.71-2.4-9.9-3.61-15.59-3.61-8.97,0-18.21,3.34-27.73,10.01-9.52,6.67-19.09,15.37-28.71,26.09-9.63,10.72-18.98,22.26-28.06,34.62-9.08,12.36-17.67,24.34-25.76,35.93Z"/>
      <path class="cls-1" d="M287.46,205.82h-.37c-3.5,7.54-8.83,13.62-20.42,13.62-12.7,0-20.42-7.73-20.42-21.53v-15.64c0-27.6,41.22-24.29,41.22-43.79,0-4.23-1.29-7.73-6.07-7.73s-6.07,3.5-6.07,7.73v11.59h-29.07v-9.75c0-21.16,17.66-28.71,35.15-28.71s35.15,7.54,35.15,28.71v77.83h-29.07v-12.33ZM275.32,191.1c0,3.68,2.58,5.52,5.34,5.52,6.07,0,6.81-4.05,6.81-13.43v-18.22c-5.7,4.05-12.14,6.44-12.14,14.72v11.41Z"/>
      <path class="cls-1" d="M365.84,108.3v-19.87h73.23v19.87h-21.34v111.14h-30.54v-111.14h-21.34Z"/>
      <path class="cls-1" d="M457.84,168.84v21.34c0,6.26,2.21,10.12,6.07,10.12,4.6,0,6.07-3.86,6.07-10.12v-13.62h29.07v15.46c0,19.87-14.72,27.42-35.15,27.42-18.58,0-35.15-8.46-35.15-27.97v-50.23c0-18.95,12.51-29.62,35.15-29.62,18.58,0,35.15,6.99,35.15,29.62v27.6h-41.22ZM469.99,151.36v-14.35c0-4.05-2.02-6.26-6.07-6.26s-6.07,2.21-6.07,6.26v14.35h12.14Z"/>
      <path class="cls-1" d="M536.22,127.99h.55c3.86-9.2,10.3-15.09,20.98-15.09,14.72,0,19.69,9.75,19.69,20.61v37.54h-29.07v-25.58c0-4.23-1.29-8.65-6.07-8.65s-6.07,4.42-6.07,8.65v73.97h-29.07v-105.25h29.07v13.8Z"/>
      <path class="cls-1" d="M681.62,205.08h-.37c-2.76,9.2-9.75,14.35-21.16,14.35-13.06,0-19.69-9.02-19.69-24.11v-82.43h29.07v73.05c0,4.6.37,9.57,5.89,9.57s6.26-4.97,6.26-9.57v-73.05h29.07v105.25h-29.07v-13.06Z"/>
      <path class="cls-1" d="M843.26,206.09h-.42c-3.95,7.57-9.98,13.66-23.08,13.66-14.34,0-23.08-7.75-23.08-21.59v-15.69c0-27.68,46.57-24.36,46.57-43.92,0-4.24-1.46-7.75-6.86-7.75s-6.86,3.51-6.86,7.75v11.63h-32.85v-9.78c0-21.22,19.96-28.79,39.71-28.79s39.71,7.57,39.71,28.79v78.06h-32.85v-12.36ZM829.53,191.33c0,3.69,2.91,5.54,6.03,5.54,6.86,0,7.69-4.06,7.69-13.47v-18.27c-6.44,4.06-13.72,6.46-13.72,14.76v11.44Z"/>
      <path class="cls-1" d="M579.01,219.44c-5.1,0-8.72-1.12-10.85-3.35-2.12-2.23-3.19-5.05-3.19-8.45,0-4.04.85-8.24,2.55-12.6,1.7-4.36,3.72-8.66,6.06-12.92,2.76-4.89,6.8-11.05,12.12-18.5,5.31-7.44,11.37-15.47,18.18-24.08,6.8-8.61,13.77-17.07,20.89-25.36,7.12-8.29,13.88-15.84,20.26-22.65-13.4-5.95-26.53-11.75-39.39-17.38-12.87-5.63-25.89-8.45-39.08-8.45-5.31,0-10.74.64-16.27,1.91-10.21,2.55-17.86,8.93-22.97,19.14-.42,1.28-.85,2.66-1.28,4.15-.42,1.49-.64,3.08-.64,4.78,0,1.28.11,2.23.32,2.87-1.28.64-2.44.96-3.51.96-1.7,0-2.98-.74-3.83-2.23-.85-1.48-1.28-3.29-1.28-5.42,0-2.34.43-4.36,1.28-6.06,2.55-5.95,6.81-10.58,12.76-13.88,5.96-3.29,12.12-5.69,18.5-7.18,3.19-.85,6.43-1.44,9.73-1.75,3.3-.32,6.65-.48,10.05-.48,10.85,0,21.74,1.33,32.7,3.99,10.95,2.66,21,6.01,30.14,10.05l19.14,8.29c2.34-2.34,4.52-4.47,6.54-6.38,2.02-1.91,3.88-3.61,5.58-5.1,6.8-6.17,13.34-10.79,19.62-13.88,6.27-3.08,11.11-4.73,14.51-4.94-10.64,10.85-21.91,22.76-33.81,35.73,9.14,3.62,18.5,6.81,28.07,9.57,9.57,2.77,19.03,4.15,28.39,4.15,5.95,0,12.17-1.38,18.66-4.15,6.48-2.76,12.01-6.64,16.59-11.64,4.57-4.99,6.86-11.01,6.86-18.02,0-5.53-1.97-10.15-5.9-13.88-3.94-3.72-8.03-5.9-12.28-6.54,0-.42,1.59-.85,4.78-1.28.85-.21,2.02-.32,3.51-.32,5.53,0,10.05,2.02,13.56,6.06,3.51,4.04,5.26,9.04,5.26,14.99,0,9.36-3.14,16.91-9.41,22.65-6.28,5.74-14.15,9.89-23.61,12.44-9.46,2.55-18.98,3.83-28.55,3.83s-18.08-1.06-26.79-3.19c-8.72-2.12-17.12-4.89-25.2-8.29-10.42,11.7-20.73,23.71-30.94,36.04-10.21,12.34-19.25,24.24-27.11,35.73-7.87,11.48-13.72,21.91-17.54,31.26-1.28,4.04-1.91,6.91-1.91,8.61,0,3.62,1.8,5.42,5.42,5.42s7.55-1.38,11.8-4.15c5.31-3.4,9.99-7.18,14.04-11.32,4.04-4.15,8.72-9.2,14.04-15.15.85,0,1.28.43,1.28,1.28s-.11,1.7-.32,2.55c-.21.85-.53,1.7-.96,2.55-8.51,9.78-16.48,17.23-23.92,22.33-7.45,5.1-14.99,7.66-22.65,7.66Z"/>
      <g>
        <path class="cls-1" d="M722.01,219.44V88.43h29.07v131.01h-29.07Z"/>
        <path class="cls-1" d="M759.54,114.19v105.25h29.07v-105.25h-29.07Z"/>
      </g>
      <circle class="cls-1" cx="773.69" cy="99.32" r="10"/>
    </g>
  </g>
</svg>